# AST/ASF file generated using VICON BodyLanguage
# -----------------------------------------------
:version 1.10
:name VICON
:units
  mass 1.0
  length 0.45
  angle deg
:documentation
   .ast/.asf automatically generated from VICON data using
   VICON BodyBuilder and BodyLanguage model FoxedUp or BRILLIANT.MOD
:root
   order TX TY TZ RX RY RZ
   axis XYZ
   position 0 0 0  
   orientation 0 0 0 
:bonedata
  begin
     id 1 
     name lhipjoint
     direction 0.523584 -0.783993 0.333487 
     length 2.44404 
     axis 0 0 0  XYZ
  end
  begin
     id 2 
     name lfemur
     direction 0.34202 -0.939693 0  
     length 7.29523  
     axis 0 0 20  XYZ
    dof rx ry rz
    limits (-160.0 20.0)
           (-70.0 70.0)
           (-60.0 70.0)
  end
  begin
     id 3 
     name ltibia
     direction 0.34215 -0.939645 0   
     length 7.81194   
     axis 0 0 20   XYZ
    dof rx
    limits (-10.0 170.0)
  end
  begin
     id 4 
     name lfoot
     direction 0.0941847 -0.25877 0.961336   
     length 2.41437   
     axis -90 7.62852e-016 20   XYZ
    dof rx rz
    limits (-45.0 90.0)
           (-70.0 20.0)
  end
  begin
     id 5 
     name ltoes
     direction 1.53526e-011 -4.21768e-011 1   
     length 1.2048   
     axis -90 7.62852e-016 20   XYZ
    dof rx
    limits (-90.0 20.0)
  end
  begin
     id 6 
     name rhipjoint
     direction -0.46599 -0.814191 0.346332   
     length 2.35339  
     axis 0 0 0  XYZ 
  end
  begin
     id 7 
     name rfemur
     direction -0.34202 -0.939693 0   
     length 7.34966   
     axis 0 0 -20   XYZ
    dof rx ry rz
    limits (-160.0 20.0)
           (-70.0 70.0)
           (-70.0 60.0)
  end
  begin
     id 8 
     name rtibia
     direction -0.34202 -0.939693 0   
     length 7.89934   
     axis 0 0 -20   XYZ
    dof rx
    limits (-10.0 170.0)
 end
 begin
     id 9 
     name rfoot
     direction -0.0975468 -0.268008 0.958466   
     length 2.27725  
     axis -90 -7.62852e-016 -20   XYZ
    dof rx rz
    limits (-45.0 90.0)
           (-20.0 70.0)
  end
  begin
     id 10 
     name rtoes
     direction -1.53563e-011 -4.22022e-011 1   
     length 1.13683   
     axis -90 -7.62852e-016 -20   XYZ
    dof rx
    limits (-90.0 20.0)
  end
  begin
     id 11 
     name lowerback
     direction -0.00456414 0.999242 -0.0386661   
     length 2.16968   
     axis 0 0 0   XYZ
    dof rx ry rz
    limits (-20.0 45.0)
           (-30.0 30.0)
           (-30.0 30.0)
  end
  begin
     id 12 
     name upperback
     direction 0.0297078 0.998988 0.0337799   
     length 2.15674   
     axis 0 0 0   XYZ
    dof rx ry rz
    limits (-20.0 45.0)
           (-30.0 30.0)
           (-30.0 30.0)
  end
  begin
     id 13 
     name thorax
     direction 0.0309305 0.998202 0.0513506   
     length 2.16319   
     axis 0 0 0   XYZ
    dof rx ry rz
    limits (-20.0 45.0)
           (-30.0 30.0)
           (-30.0 30.0)
  end
  begin
     id 14 
     name lowerneck
     direction -0.103039 0.983474 0.148872   
     length 1.64318   
     axis 0 0 0   XYZ
    dof rx ry rz
    limits (-20.0 45.0)
           (-30.0 30.0)
           (-30.0 30.0)
  end
  begin
     id 15 
     name upperneck
     direction 0.128124 0.971079 -0.201469   
     length 1.68242   
     axis 0 0 0   XYZ
    dof rx ry rz
    limits (-20.0 45.0)
           (-30.0 30.0)
           (-30.0 30.0)
  end
  begin
     id 16
     name head
     direction 0.0496365 0.994919 -0.0875941  
     length 1.70108  
     axis 0 0 0   XYZ
    dof rx ry rz
    limits (-20.0 45.0)
           (-30.0 30.0)
           (-30.0 30.0)
  end
  begin
     id 17 
     name lclavicle
     direction 0.887148 0.430222 -0.166967  
     length 3.25763  
     axis 0 0 0   XYZ
    dof ry rz
    limits (-20.0 10.0)
           (0.0 20.0)
  end
  begin
     id 18 
     name lhumerus
     direction 1 -4.48962e-011 1.92156e-027   
     length 5.10755   
     axis 180 -30 -90   XYZ
    dof rx ry rz
    limits (-60.0 90.0)
           (-90.0 90.0)
           (-90.0 90.0)
  end
  begin
     id 19
     name lradius
     direction 1 -4.48958e-011 7.10963e-027   
     length 3.36253   
     axis 180 -30 -90   XYZ
    dof rx
    limits (-10.0 170.0)
  end
  begin
     id 20
     name lwrist
     direction 1 -4.48946e-011 1.82396e-026   
     length 1.68127   
     axis -1.15222e-014 90 90   XYZ
    dof ry
    limits (-180.0 0.0)
 end
  begin
     id 21 
     name lhand
     direction 1 -4.48919e-011 3.64759e-026   
     length 0.619088   
     axis -2.32787e-014 90 90   XYZ
    dof rx rz
    limits (-90.0 90.0)
           (-45.0 45.0)
  end
  begin
     id 22 
     name lfingers
     direction 1 -4.49012e-011 7.29744e-026   
     length 0.499125   
     axis -4.6558e-014 90 90   XYZ
    dof rx
    limits (0.0 90.0)
  end
  begin
     id 23
     name lthumb
     direction 0.707107 -6.35028e-011 0.707107   
     length 0.716646   
     axis -90 45 3.78391e-014   XYZ
    dof rx rz
    limits (-45.0 45.0)
           (-45.0 45.0)
  end
  begin
     id 24 
     name rclavicle
     direction -0.82886 0.533198 -0.169384   
     length 3.20647  
     axis 0 0 0   XYZ 
    dof ry rz
    limits (-10.0 20.0)
           (-20.0 0.0)
  end
  begin
     id 25 
     name rhumerus
     direction -1 -4.48973e-011 3.06863e-027  
     length 5.27387   
     axis 180 30 90   XYZ
    dof rx ry rz
    limits (-90.0 60.0)
           (-90.0 90.0)
           (-90.0 90.0)
  end
  begin
     id 26 
     name rradius
     direction -1 -4.48988e-011 9.4797e-027   
     length 3.40144   
     axis 180 30 90   XYZ
    dof rx
    limits (-10.0 170.0)
  end
  begin
     id 27 
     name rwrist
     direction -1 -4.48897e-011 1.82366e-026   
     length 1.70072   
     axis -1.15222e-014 -90 -90   XYZ
    dof ry
    limits (-180.0 0.0)
  end
  begin
     id 28
     name rhand
     direction -1 -4.48965e-011 3.64815e-026   
     length 0.742821   
     axis -2.32787e-014 -90 -90   XYZ
    dof rx rz
    limits (-90.0 90.0)
           (-45.0 45.0)
  end
  begin
     id 29
     name rfingers
     direction -1 -4.49016e-011 7.29754e-026   
     length 0.598881   
     axis -4.6558e-014 -90 -90   XYZ
    dof rx
    limits (0.0 90.0)
  end
  begin
     id 30
     name rthumb
     direction -0.707107 -6.3488e-011 0.707107   
     length 0.859877   
     axis -90 -45 -3.78391e-014   XYZ
    dof rx rz
    limits (-45.0 45.0)
           (-45.0 45.0)
  end
:hierarchy
  begin
    root lhipjoint rhipjoint lowerback
    lhipjoint lfemur
    lfemur ltibia
    ltibia lfoot
    lfoot ltoes
    rhipjoint rfemur
    rfemur rtibia
    rtibia rfoot
    rfoot rtoes
    lowerback upperback
    upperback thorax
    thorax lowerneck lclavicle rclavicle
    lowerneck upperneck
    upperneck head
    lclavicle lhumerus
    lhumerus lradius
    lradius lwrist
    lwrist lhand lthumb
    lhand lfingers
    rclavicle rhumerus
    rhumerus rradius
    rradius rwrist
    rwrist rhand rthumb
    rhand rfingers
  end

#!OML:ASF F:\Work\Patient Classification 1\justin\Session 1\justin.ASF
:FULLY-SPECIFIED
:DEGREES
3015
root 0.503231 18.5001 -4.74993 3.30421 9.0092 -3.30686
lowerback 10.2503 2.6581 2.87004
upperback 0.515352 4.06158 3.42234
thorax -5.26105 1.97568 1.37025
lowerneck -15.8232 -10.6295 -18.907
upperneck 13.8824 -12.8429 14.7875
head 9.19917 -5.80206 6.36227
rclavicle -4.77083e-015 -2.14687e-014
rhumerus 44.5132 14.4064 -44.9904
rradius 38.1802
rwrist 11.3668
rhand -7.73607 6.95597
rfingers 7.12502
rthumb 18.1628 -22.216
lclavicle -4.77083e-015 -2.14687e-014
lhumerus 32.9063 -43.5975 58.3072
lradius 88.1736
lwrist -16.3594
lhand -11.6166 40.6025
lfingers 7.12502
lthumb 14.4265 70.081
rfemur -6.30917 -2.21277 24.5194
rtibia 16.663
rfoot -10.4071 -7.24653
rtoes -11.6842
lfemur -8.77859 0.357274 -15.1753
ltibia 18.5919
lfoot -9.47193 -1.62497
ltoes -15.0597
3016
root 0.504908 18.503 -4.7445 3.29505 9.07089 -3.33965
lowerback 10.1505 2.65926 2.93144
upperback 0.59289 4.05887 3.38685
thorax -5.1166 1.97455 1.3059
lowerneck -15.856 -10.6468 -18.8291
upperneck 13.8608 -12.8786 14.7926
head 9.1991 -5.81262 6.34391
rclavicle -1.19271e-015 -1.35174e-014
rhumerus 45.4264 13.6063 -44.6474
rradius 38.1002
rwrist 11.5633
rhand -7.30386 7.11384
rfingers 7.12502
rthumb 18.5786 -22.019
lclavicle -1.19271e-015 -1.35174e-014
lhumerus 32.1679 -44.4725 58.6498
lradius 87.5571
lwrist -16.5531
lhand -11.7363 40.4556
lfingers 7.12502
lthumb 14.3111 69.9424
rfemur -6.235 -2.37451 24.5397
rtibia 16.4609
rfoot -10.4551 -7.18738
rtoes -11.1566
lfemur -8.81113 0.334703 -15.1502
ltibia 18.7239
lfoot -9.56459 -1.64865
ltoes -14.9854
3017
root 0.50376 18.504 -4.74446 3.3036 9.06828 -3.41263
lowerback 10.0574 2.64344 2.97743
upperback 0.792434 4.02766 3.38402
thorax -4.85132 1.9622 1.29085
lowerneck -16.4891 -10.7085 -18.6435
upperneck 13.9582 -12.88 14.6828
head 9.32287 -5.78466 6.25609
rclavicle 3.39922e-014 2.14687e-014
rhumerus 46.6175 12.7311 -44.2633
rradius 38.0343
rwrist 11.9135
rhand -7.44183 7.67448
rfingers 7.12502
rthumb 18.4458 -21.471
lclavicle 3.39922e-014 2.14687e-014
lhumerus 31.4609 -45.2494 58.8265
lradius 86.9522
lwrist -16.7094
lhand -11.6885 40.4827
lfingers 7.12502
lthumb 14.3572 69.9663
rfemur -6.18769 -2.33787 24.626
rtibia 16.2922
rfoot -10.3818 -7.2236
rtoes -11.4117
lfemur -8.85954 0.284294 -15.0629
ltibia 18.8341
lfoot -9.63209 -1.58157
ltoes -15.1136
3018
root 0.498909 18.5009 -4.74698 3.31895 9.0234 -3.59543
lowerback 10.2035 2.64634 3.08953
upperback 0.561483 4.06369 3.37972
thorax -5.16791 1.97214 1.2065
lowerneck -15.9179 -10.5578 -18.6514
upperneck 13.8478 -12.7811 14.7775
head 9.17428 -5.75657 6.32598
rclavicle 1.17283e-014 2.46493e-014
rhumerus 47.2522 12.3478 -44.083
rradius 37.9373
rwrist 11.9962
rhand -8.29046 7.86822
rfingers 7.12502
rthumb 17.6293 -21.3525
lclavicle 1.17283e-014 2.46493e-014
lhumerus 29.6631 -46.2398 59.8548
lradius 86.1337
lwrist -16.9162
lhand -11.7719 40.5402
lfingers 7.12502
lthumb 14.2768 70.0294
rfemur -6.18789 -2.09215 24.8587
rtibia 16.1844
rfoot -10.3725 -7.36524
rtoes -11.5579
lfemur -8.96138 0.316557 -14.8367
ltibia 18.9252
lfoot -9.68479 -1.52241
ltoes -15.2496
3019
root 0.494629 18.4979 -4.74702 3.37305 8.9495 -3.68583
lowerback 10.3404 2.7064 3.14253
upperback 0.358127 4.16499 3.33349
thorax -5.45173 2.01504 1.10272
lowerneck -15.4831 -10.5323 -18.6751
upperneck 13.8052 -12.8301 14.8449
head 9.09866 -5.79432 6.35838
rclavicle 3.51849e-014 -2.46493e-014
rhumerus 47.7802 11.791 -43.9756
rradius 38.0323
rwrist 11.7343
rhand -6.99809 7.14336
rfingers 7.12502
rthumb 18.8727 -21.9611
lclavicle 3.51849e-014 -2.46493e-014
lhumerus 28.9576 -47.5086 60.1069
lradius 85.5049
lwrist -16.8816
lhand -11.2088 40.9818
lfingers 7.12502
lthumb 14.8194 70.4319
rfemur -6.22316 -1.84464 24.976
rtibia 16.1074
rfoot -10.3506 -7.46586
rtoes -11.391
lfemur -9.09709 0.371943 -14.7196
ltibia 19.0138
lfoot -9.7436 -1.47528
ltoes -15.0882
3020
root 0.496366 18.4978 -4.74289 3.37949 8.91032 -3.65281
lowerback 10.3706 2.73617 3.11614
upperback 0.370067 4.20073 3.306
thorax -5.45588 2.03282 1.08225
lowerneck -15.5858 -10.6151 -18.6205
upperneck 13.8348 -12.9092 14.6801
head 9.12388 -5.83762 6.27253
rclavicle -4.96962e-016 1.27222e-014
rhumerus 48.4995 11.1462 -43.6437
rradius 38.3384
rwrist 11.1138
rhand -6.20382 6.53832
rfingers 7.12502
rthumb 19.6364 -22.49
lclavicle -4.96962e-016 1.27222e-014
lhumerus 28.9291 -48.516 59.9654
lradius 84.6275
lwrist -16.8818
lhand -10.7016 41.371
lfingers 7.12502
lthumb 15.308 70.7845
rfemur -6.16319 -1.82988 24.9143
rtibia 16.0538
rfoot -10.2578 -7.39763
rtoes -11.0576
lfemur -9.0863 0.332809 -14.7662
ltibia 19.0404
lfoot -9.78028 -1.43628
ltoes -14.9848
3021
root 0.501474 18.498 -4.73771 3.34814 8.90997 -3.64975
lowerback 10.1191 2.69841 3.08175
upperback 0.735029 4.11734 3.36339
thorax -4.93769 2.00238 1.19442
lowerneck -16.4532 -10.7842 -18.4598
upperneck 13.9398 -12.9699 14.366
head 9.28687 -5.84595 6.09558
rclavicle -6.95746e-015 5.1684e-014
rhumerus 49.7448 10.3115 -43.0991
rradius 38.5198
rwrist 10.6999
rhand -6.52742 6.83842
rfingers 7.12502
rthumb 19.3253 -22.2213
lclavicle -6.95746e-015 5.1684e-014
lhumerus 28.7303 -48.6661 60.1646
lradius 83.1963
lwrist -17.1499
lhand -10.9659 40.7565
lfingers 7.12502
lthumb 15.0533 70.1892
rfemur -6.07158 -1.98442 24.8735
rtibia 16.0169
rfoot -10.2407 -7.22654
rtoes -10.9685
lfemur -8.99129 0.27478 -14.7922
ltibia 19.0049
lfoot -9.77905 -1.41146
ltoes -15.0091
